<?xml version="1.0" encoding="utf-8"?>
<!-- Generator: Adobe Illustrator 16.0.0, SVG Export Plug-In . SVG Version: 6.00 Build 0)  -->
<!DOCTYPE svg PUBLIC "-//W3C//DTD SVG 1.1//EN" "http://www.w3.org/Graphics/SVG/1.1/DTD/svg11.dtd">
<svg version="1.1" id="Layer_1" xmlns="http://www.w3.org/2000/svg" xmlns:xlink="http://www.w3.org/1999/xlink" x="0px" y="0px"
	 width="42.38px" height="42.38px" viewBox="0 0 42.38 42.38" enable-background="new 0 0 42.38 42.38" xml:space="preserve">
<g>
	<path fill="#3A3A3A" d="M1.464,32.236v8.328h2.853v1.376H0v-9.704H1.464z"/>
	<path fill="#3A3A3A" d="M4.827,37.044c0-1.366,0.501-2.539,1.502-3.52c0.998-0.98,2.196-1.471,3.595-1.471
		c1.383,0,2.568,0.494,3.557,1.483c0.993,0.989,1.49,2.177,1.49,3.563c0,1.396-0.499,2.579-1.496,3.551
		c-1.001,0.976-2.21,1.464-3.626,1.464c-1.253,0-2.378-0.434-3.375-1.301C5.375,39.855,4.827,38.599,4.827,37.044z M6.304,37.063
		c0,1.072,0.361,1.954,1.081,2.646c0.716,0.691,1.544,1.037,2.482,1.037c1.019,0,1.877-0.353,2.577-1.056
		c0.7-0.712,1.049-1.58,1.049-2.602c0-1.036-0.346-1.903-1.037-2.603c-0.687-0.704-1.538-1.056-2.552-1.056
		c-1.01,0-1.863,0.352-2.558,1.056C6.652,35.182,6.304,36.041,6.304,37.063z"/>
	<path fill="#3A3A3A" d="M20.1,37.804l3.004,4.136h-1.791l-2.772-3.972h-0.264v3.972h-1.464v-9.704h1.715
		c1.282,0,2.208,0.241,2.778,0.723c0.628,0.536,0.943,1.244,0.943,2.124c0,0.688-0.197,1.278-0.591,1.772
		C21.264,37.35,20.745,37.666,20.1,37.804z M18.277,36.692h0.465c1.386,0,2.08-0.531,2.08-1.59c0-0.993-0.675-1.49-2.023-1.49
		h-0.522V36.692z"/>
	<path fill="#3A3A3A" d="M29.917,33.612h-3.89v2.332h3.777v1.376h-3.777v3.243h3.89v1.376h-5.354v-9.704h5.354V33.612z"/>
	<path fill="#3A3A3A" d="M31.5,41.94l2.042-10.433l3.331,7.542l3.45-7.542L42.16,41.94h-1.502l-0.937-5.857l-2.872,6.304
		l-2.791-6.31l-1.043,5.864H31.5z"/>
</g>
<circle fill="none" stroke="#3A3A3A" stroke-miterlimit="10" cx="21.401" cy="15.22" r="14.219"/>
</svg>
